<svg version="1.2" xmlns="http://www.w3.org/2000/svg" viewBox="0 0 193 47" width="193" height="47">
	<title>random-svg</title>
	<style>
		.s0 { fill: #ffffff } 
		.s1 { fill: #000000 } 
	</style>
	<g id="Layer">
		<path id="Layer" fill-rule="evenodd" class="s0" d="m0-74h192.8v192.8h-192.8z"/>
		<path id="Layer" fill-rule="evenodd" class="s1" d="m147.6 18c3-2.6 4.5-5.2 3.7-6.9q-0.4-1-1.7-1.4-0.1-0.1-0.2-0.1-0.2-0.1-0.3-0.1-0.1 0-0.2 0-0.2-0.1-0.3-0.1 0 0 0-0.1 0-0.4-0.3-0.7-0.3-0.3-0.7-0.3-0.4 0-0.7 0.3-0.3 0.3-0.4 0.7-0.4 0-0.9 0c0.1-1.7 0-3.1-0.4-4.2q-0.4-1.3-1.4-1.7-0.9-0.5-2.2 0c-1.4 0.5-3.1 1.8-4.8 3.8-1.6-2-3.3-3.3-4.8-3.8q-1.3-0.5-2.2 0-1 0.4-1.4 1.7c-0.4 1-0.5 2.4-0.3 4.1q-0.8-0.1-1.4-0.1-0.2-0.3-0.4-0.5-0.3-0.1-0.7-0.1-0.3 0-0.6 0.2-0.2 0.3-0.3 0.6-0.1 0-0.2 0-0.1 0-0.2 0.1-0.1 0-0.2 0 0 0.1-0.1 0.1-1.3 0.4-1.8 1.4-0.4 0.9 0 2.2c0.5 1.4 1.8 3.1 3.7 4.7-2.9 2.5-4.4 5-3.6 6.7 0.7 1.5 3 2.1 6.1 1.8q-0.1 0.3-0.1 0.7c-0.4 0.1-0.7 0.5-0.7 1 0 0.4 0.3 0.8 0.8 1 0.1 1.6 0.7 2.8 1.7 3.2q1 0.5 2.2 0c1.4-0.5 3-1.7 4.6-3.5 2.5 2.9 5 4.3 6.7 3.5 1-0.5 1.6-1.6 1.7-3.2 0.4 0.1 0.7 0.1 0.9-0.1 0.3-0.2 0.5-0.5 0.5-0.8 0-0.3-0.2-0.7-0.4-0.9-0.3-0.2-0.6-0.2-0.9-0.2q0 0 0-0.1 0-0.1 0-0.2 0-0.1 0-0.1 0-0.1 0-0.2c1.6 0.2 2.9 0.1 3.9-0.3q1.3-0.5 1.8-1.4 0.4-1 0-2.3c-0.5-1.3-1.8-2.9-3.5-4.4z"/>
		<path id="Layer" fill-rule="evenodd" class="s0" d="m133.6 23.1q0.1 0.2 0.2 0.4 0.2 0.2 0.3 0.5 0.1 0.2 0.3 0.4 0.8-0.3 1.6-0.6-0.4-0.1-0.7-0.3-0.3-0.1-0.7-0.3-0.3-0.1-0.6-0.3-0.4-0.1-0.7-0.3 0.1 0.2 0.3 0.5zm1.3-0.3q0.3 0.1 0.6 0.3 0.3 0.1 0.6 0.2 0.3 0.1 0.6 0.3 0.5-0.2 1.1-0.5 0.5-0.2 1-0.4 0.6-0.3 1.1-0.5 0.5-0.3 1-0.6 0.3-0.4 0.5-0.8 0.2-0.5 0.4-0.9 0.2-0.5 0.4-0.9 0.2-0.5 0.4-0.9-0.2-0.5-0.4-1.1-0.3-0.5-0.5-1-0.3-0.5-0.5-1-0.3-0.6-0.5-1.1-0.5-0.2-1-0.5-0.5-0.2-1-0.4-0.4-0.3-0.9-0.5-0.5-0.2-1-0.4-0.5 0.2-0.9 0.4-0.5 0.2-1 0.4-0.4 0.2-0.9 0.4-0.4 0.2-0.9 0.4-0.3 0.6-0.5 1.1-0.3 0.6-0.6 1.1-0.2 0.5-0.4 1.1-0.3 0.6-0.5 1.1 0.2 0.5 0.4 0.9 0.2 0.5 0.4 1 0.2 0.4 0.5 0.9 0.2 0.4 0.4 0.9 0.2 0.1 0.4 0.2 0.2 0.1 0.4 0.2 0.2 0.1 0.4 0.2 0.2 0 0.4 0.1 0.3 0.2 0.5 0.3z"/>
		<path id="Layer" fill-rule="evenodd" class="s1" d="m14.2 41.2c-0.9-0.1-1.6-0.1-1.6-0.8v-5.2c0-0.7 0.8-0.7 1.6-0.7v-0.3h-5.6v0.3c0.7 0 1.4 0 1.4 0.7v5.2c0 0.7-0.6 0.7-1.4 0.8v0.2h5.6zm4.7 0v0.3h3.6v-0.3c-1.2-0.1-1.5-0.3-1.5-1v-4.3l7.1 5.8h0.5v-6.3c0-0.5 0.1-0.8 1.2-0.9v-0.2h-3.4v0.2c1.3 0.1 1.5 0.5 1.5 1.1v3.2h-0.1l-5.5-4.5h-3.4v0.3c0.2 0 0.5 0 1.4 0.7v5.1c0 0.7-0.5 0.7-1.4 0.8zm25.9-1.3c-1.3 1-2.5 1.3-3.8 1.3-0.5 0-1.7-0.2-2.4-0.9-0.6-0.7-0.7-1.8-0.7-2.4 0-1.8 0.6-3.4 3-3.4 1.8 0 3.1 1.2 3.7 2.2h0.4v-2.5h-0.4c-0.2 0.2-0.3 0.4-0.8 0.4-0.4 0-1.6-0.5-3-0.5-3.4 0-5.7 1.7-5.7 3.9 0 1.9 2 3.7 5.7 3.7 2.1 0 3.3-0.7 4.5-1.6zm11.4-5.7c-3.1 0-5.7 1.5-5.7 3.8 0 2.2 2.4 3.8 5.7 3.8 3.3 0 5.7-1.6 5.7-3.8 0-2.3-2.6-3.8-5.7-3.8z"/>
		<path id="Layer" fill-rule="evenodd" class="s0" d="m53.4 37.8c0 1 0.1 3.5 2.8 3.5 2.8 0 2.9-2.5 2.9-3.5 0-1.5-0.6-3.4-2.9-3.4-2.2 0-2.8 1.9-2.8 3.4z"/>
		<path id="Layer" fill-rule="evenodd" class="s1" d="m78 41.4h-3.2l-3.4-3.3h-0.4v2.1c0 0.8 0.4 0.9 1.4 1v0.2h-5.4v-0.2c1.1-0.1 1.4-0.2 1.4-1v-4.7c0-1-0.5-1-1.4-1v-0.3h5.2c1.1 0 4.5 0.1 4.5 1.9 0 1.3-1.7 1.6-2.5 1.8l3.2 3.1c0.2 0.1 0.4 0.2 0.6 0.2v0.2z"/>
		<path id="Layer" fill-rule="evenodd" class="s0" d="m71 37.7c2.1 0 2.9-0.2 2.9-1.6 0-1.1-0.6-1.5-1.9-1.5-0.9 0-0.9 0.1-1 0.4z"/>
		<path id="Layer" fill-rule="evenodd" class="s1" d="m82.6 41.2c0.7-0.1 0.8-0.1 0.9-0.2 0.2-0.1 0.4-0.2 0.4-0.8v-4.7c0-0.9-0.5-1-1.3-1v-0.3h5.1c1.3 0 4.2 0.2 4.2 2 0 0.4-0.2 1.1-1.5 1.6-1 0.4-1.8 0.4-3.9 0.4v2c0 0.8 0.3 0.9 1.4 1v0.2h-5.3v-0.2z"/>
		<path id="Layer" fill-rule="evenodd" class="s0" d="m86.5 37.8c1.9 0 2.6-0.3 2.6-1.6 0-1.2-0.5-1.6-1.8-1.6-0.6 0-0.8 0.1-0.8 0.4z"/>
		<path id="Layer" fill-rule="evenodd" class="s1" d="m108.1 37.8c0 2.3-2.4 3.8-5.7 3.8-3.2 0-5.6-1.5-5.6-3.8 0-2.3 2.6-3.7 5.6-3.7 3.1 0 5.7 1.4 5.7 3.7z"/>
		<path id="Layer" fill-rule="evenodd" class="s0" d="m99.6 37.8c0 1 0.1 3.5 2.8 3.5 2.8 0 2.9-2.5 2.9-3.5 0-1.5-0.6-3.4-2.9-3.4-2.2 0-2.8 1.9-2.8 3.4z"/>
		<path id="Layer" fill-rule="evenodd" class="s1" d="m124.2 41.4h-3.2l-3.3-3.3h-0.5v2.1c0 0.8 0.4 0.9 1.4 1v0.2h-5.4v-0.2c1.1-0.1 1.4-0.2 1.4-1v-4.7c0-1-0.5-1-1.4-1v-0.3h5.2c1.1 0 4.5 0.1 4.5 1.9 0 1.3-1.7 1.6-2.5 1.8l3.2 3.1c0.2 0.1 0.5 0.2 0.6 0.2v0.2z"/>
		<path id="Layer" fill-rule="evenodd" class="s0" d="m117.2 37.7c2.1 0 3-0.2 3-1.6 0-1.1-0.7-1.5-2-1.5-0.9 0-0.9 0.1-1 0.4z"/>
		<path id="Layer" fill-rule="evenodd" class="s1" d="m139.5 41.4h-5.2v-0.2c1-0.1 1.3-0.1 1.3-0.5 0-0.2-0.5-1-0.7-1.4h-3.6c-0.5 0.8-0.7 1.2-0.7 1.4 0 0.4 0.8 0.4 1.3 0.5v0.2h-3.2v-0.2c0.8-0.1 1-0.5 1.5-1.3l3.6-5.8h0.4l3.6 5.6c0.7 1.1 1 1.5 1.7 1.5v0.2z"/>
		<path id="Layer" fill-rule="evenodd" class="s0" d="m134.7 38.9l-1.7-2.6-1.5 2.6z"/>
		<path id="Layer" fill-rule="evenodd" class="s1" d="m152 41.2c-1.2-0.1-1.6-0.1-1.6-1v-5.6c1.1 0 2.7 0.1 3.1 1.8h0.4v-2.2h-9.6v2.2h0.4c0.3-1.7 2-1.8 3.1-1.8v5.6c0 0.9-0.4 0.9-1.5 1v0.2h5.7zm6.3-6.6c0.7 0 1.4 0 1.4 0.7v5.2c0 0.6-0.5 0.7-1.4 0.7v0.3h9.4l0.6-2.2h-0.5c-1 1.6-2.6 1.9-4.2 1.9-1 0-1.3-0.2-1.3-0.6v-2.6c1.6 0 2.4 0.3 2.6 1.6h0.4v-3.6h-0.4c-0.3 1.4-1.1 1.6-2.6 1.6v-2.5c0-0.4 0.3-0.5 1.2-0.5 2.1 0 3.3 0.3 3.6 1.8h0.4v-2.1h-9.2zm15.1 6.9h5.1c4-0.1 5.8-1.7 5.8-3.7 0-1.6-1.5-3.5-6-3.5h-4.9v0.3c0.7 0 1.4 0 1.4 0.7v5.2c0 0.4-0.3 0.8-1.4 0.8z"/>
		<path id="Layer" fill-rule="evenodd" class="s0" d="m177.4 40.4c0 0.5 0.1 0.6 0.9 0.6 1.8 0 3.2-0.6 3.2-3.2 0-1-0.4-3.2-3.1-3.2-1.1 0-1.1 0.2-1 0.5z"/>
		<path id="Layer" fill-rule="evenodd" class="s1" d="m91.8 5.4v25.2h-9.4l-7.3-14.1v14.1h-8.9v-25.2h11.4l5.3 11.6v-11.6zm-38.7 21.2h-7.3l-0.9 4h-9.9l7-25.2h14.8l6.9 25.2h-9.7z"/>
		<path id="Layer" fill-rule="evenodd" class="s0" d="m47 20.6l2.3-10.8 2.4 10.8z"/>
		<path id="Layer" fill-rule="evenodd" class="s1" d="m34.1 30.6l-7.1-10.3c7.5-0.5 6.9-7.5 6.9-7.5-0.5-7.7-8.4-7.4-8.4-7.4h-17v25.2h8.9v-9l6.1 9z"/>
		<path id="Layer" fill-rule="evenodd" class="s0" d="m21.7 17.6h-4.3v-5.5h4.3c2.9 0 2.8 2.5 2.8 2.5 0.2 3.3-2.8 3-2.8 3z"/>
		<path id="Layer" fill-rule="evenodd" class="s1" d="m111.1 5.4h-14.7v25.2h14.1c0 0 11.3 0.4 11-12.3 0 0 0.6-13.2-10.4-12.9z"/>
		<path id="Layer" fill-rule="evenodd" class="s0" d="m112.1 21.1c0 0-0.4 3.2-3.8 3.2h-3v-11.2h2.9c0 0 3.6-0.2 3.9 3.5 0 0 0.2 3 0 4.5z"/>
		<path id="Layer" fill-rule="evenodd" class="s1" d="m136.8 15.3c-1 0-1.9 0.6-2.3 1.5-0.4 1-0.2 2 0.5 2.7 0.7 0.7 1.8 0.9 2.7 0.5 0.9-0.3 1.5-1.2 1.5-2.2q0-0.5-0.2-1-0.1-0.4-0.5-0.8-0.3-0.3-0.8-0.5-0.4-0.2-0.9-0.2z"/>
		<path id="Layer" fill-rule="evenodd" class="s0" d="m145.5 9.8q0.6 0 1.2 0c0.1 0.3 0.5 0.5 0.9 0.5 0.3 0 0.6-0.1 0.8-0.4q0.6 0.1 1 0.3 1.1 0.4 1.5 1.1c0.6 1.5-0.9 3.9-3.8 6.3q-0.3-0.3-0.7-0.6-0.3-0.3-0.7-0.6-0.4-0.2-0.8-0.5-0.3-0.3-0.7-0.5c0.6-2 1.1-3.9 1.3-5.6zm-12.8 3.5q-0.3 0.2-0.7 0.4-0.3 0.2-0.7 0.4-0.4 0.2-0.7 0.4-0.4 0.2-0.7 0.4c-0.6-1.8-1-3.6-1.2-5.1 1.6 0.2 3.4 0.6 5.4 1.3q-0.7 1.1-1.4 2.2zm1.9-2.1q0.7 0.3 1.5 0.6-0.3 0.1-0.7 0.3-0.3 0.1-0.6 0.2-0.3 0.2-0.6 0.3-0.3 0.2-0.6 0.3 0.5-0.8 1-1.7zm-3.8 6.2q-0.1-0.2-0.2-0.5-0.1-0.2-0.2-0.5-0.1-0.2-0.1-0.5-0.1-0.2-0.2-0.4 0.3-0.2 0.5-0.4 0.3-0.1 0.6-0.3 0.3-0.2 0.5-0.3 0.3-0.2 0.6-0.3-0.2 0.4-0.4 0.8-0.2 0.4-0.4 0.8-0.2 0.4-0.3 0.8-0.2 0.4-0.4 0.8zm0 1.4q0.6 1.3 1.2 2.5-0.2-0.1-0.4-0.2-0.2-0.2-0.5-0.3-0.2-0.1-0.4-0.2-0.2-0.2-0.4-0.3 0.2-0.7 0.5-1.5zm-0.3-0.7q-0.1 0.2-0.2 0.5-0.1 0.2-0.1 0.5-0.1 0.2-0.2 0.4-0.1 0.3-0.2 0.5-0.4-0.2-0.8-0.5-0.4-0.3-0.7-0.5-0.4-0.3-0.8-0.6-0.4-0.3-0.7-0.6 0.3-0.3 0.6-0.5 0.4-0.3 0.8-0.6 0.3-0.2 0.7-0.5 0.3-0.2 0.7-0.4 0.4 1.1 0.9 2.3zm-0.4 2.7q1.1 0.7 2.3 1.4 0.7 1.2 1.4 2.4c-1.7 0.5-3.3 0.9-4.8 1.1 0.2-1.5 0.6-3.1 1.1-4.9zm11.8-5.5q0-0.1-0.1-0.3 0-0.1-0.1-0.2 0-0.1-0.1-0.2 0-0.1-0.1-0.2 0.3 0.1 0.5 0.3 0.3 0.1 0.5 0.3 0.3 0.1 0.5 0.3 0.3 0.2 0.5 0.3-0.3 0.9-0.6 1.8-0.1-0.3-0.2-0.6-0.2-0.2-0.3-0.5-0.1-0.2-0.2-0.5-0.1-0.3-0.3-0.5zm1.5 4.9q-0.8 0.5-1.6 1 0.6-1.2 1.1-2.4 0.3 0.7 0.5 1.4zm-2.3-6.7q-0.2-0.3-0.4-0.6-0.2-0.3-0.3-0.6-0.2-0.3-0.4-0.6-0.2-0.3-0.4-0.6c1.9-0.6 3.8-1 5.4-1.2-0.3 1.6-0.7 3.3-1.3 5.2q-0.3-0.2-0.6-0.4-0.4-0.2-0.7-0.4-0.3-0.2-0.7-0.4-0.3-0.2-0.6-0.4zm-0.9-0.4q-0.3-0.2-0.7-0.3-0.3-0.2-0.6-0.4-0.4-0.1-0.7-0.3-0.4-0.1-0.7-0.3 0.2-0.1 0.4-0.1 0.2-0.1 0.4-0.2 0.2-0.1 0.4-0.1 0.2-0.1 0.4-0.2 0.6 0.9 1.1 1.9zm-1 10q0.7-0.3 1.3-0.6-0.2 0.2-0.3 0.5-0.2 0.2-0.3 0.5-0.2 0.3-0.3 0.5-0.2 0.3-0.3 0.5-0.3-0.1-0.5-0.1-0.2-0.1-0.5-0.2-0.2-0.1-0.4-0.2-0.2-0.1-0.5-0.1 0.3-0.1 0.5-0.2 0.2-0.1 0.4-0.2 0.3-0.1 0.5-0.2 0.2-0.1 0.4-0.2zm2.1-1.1q0.3-0.1 0.6-0.3 0.3-0.1 0.6-0.3 0.2-0.1 0.5-0.3 0.3-0.2 0.6-0.3c0.6 1.8 0.9 3.5 1.1 5-1.5-0.2-3.1-0.5-4.9-1.1q0.2-0.3 0.4-0.7 0.2-0.3 0.4-0.6 0.2-0.4 0.4-0.7 0.1-0.3 0.3-0.7zm1.9-3.9q0.4-1.1 0.8-2.2 1.5 1 2.7 2-0.3 0.3-0.7 0.6-0.3 0.2-0.7 0.5-0.3 0.2-0.7 0.5-0.4 0.2-0.7 0.4-0.3-0.9-0.7-1.8zm-1.4-14.2c1.4-0.5 2.4-0.1 2.9 1.4 0.4 1 0.5 2.4 0.3 4.1-1.7 0.1-3.6 0.6-5.7 1.2q-0.2-0.4-0.5-0.8-0.2-0.3-0.5-0.7-0.3-0.4-0.6-0.8-0.2-0.3-0.5-0.7c1.6-1.9 3.2-3.2 4.6-3.7zm-5 4.1q1 1.3 2 2.8-1 0.3-2 0.7-0.3-0.1-0.5-0.2-0.2-0.1-0.5-0.2-0.2-0.1-0.5-0.1-0.2-0.1-0.4-0.2 0.2-0.4 0.4-0.7 0.3-0.4 0.5-0.7 0.3-0.4 0.5-0.7 0.3-0.3 0.5-0.7zm-7.9-2.7c0.5-1.4 1.5-1.9 3-1.4 1.4 0.4 3 1.8 4.6 3.7q-0.3 0.4-0.6 0.7-0.3 0.4-0.5 0.8-0.3 0.4-0.6 0.7-0.2 0.4-0.5 0.8c-2-0.7-4-1.1-5.7-1.4-0.1-1.6-0.1-2.9 0.3-3.9zm-6.2 7.7c-0.5-1.5 0-2.5 1.4-3q0.1 0 0.2-0.1 0.1 0 0.1 0 0.1 0 0.2 0 0.1-0.1 0.1-0.1c0.2 0.4 0.6 0.7 1 0.7 0.6 0 1-0.3 1-0.9q0.7 0 1.4 0.1c0.2 1.7 0.7 3.5 1.3 5.5q-0.4 0.3-0.8 0.5-0.4 0.3-0.8 0.6-0.3 0.3-0.7 0.6-0.4 0.2-0.8 0.5c-1.8-1.5-3.1-3.1-3.6-4.4zm0.1 11.3c-0.7-1.5 0.8-3.8 3.5-6.2q0.4 0.4 0.8 0.7 0.4 0.3 0.9 0.6 0.4 0.3 0.8 0.6 0.4 0.3 0.8 0.5c-0.6 1.9-1 3.7-1.2 5.2-2.9 0.3-5-0.1-5.6-1.4zm9.4 7.4q-1.1 0.4-1.9 0.1c-0.8-0.4-1.2-1.4-1.4-2.8 0.5-0.1 0.8-0.6 0.8-1q0-0.2-0.1-0.4 0-0.1-0.1-0.3-0.1-0.1-0.3-0.2-0.1-0.1-0.3-0.1 0-0.4 0-0.8c1.6-0.2 3.4-0.6 5.2-1.2q0.3 0.5 0.6 0.9 0.3 0.4 0.6 0.8 0.3 0.4 0.6 0.8 0.3 0.4 0.6 0.8c-1.5 1.7-3 3-4.3 3.4zm2.5-6.8q1-0.4 2-0.8 1.2 0.5 2.3 0.9-0.3 0.4-0.5 0.7-0.3 0.4-0.5 0.7-0.3 0.4-0.6 0.7-0.2 0.4-0.5 0.7-0.3-0.3-0.6-0.7-0.3-0.3-0.6-0.7-0.2-0.4-0.5-0.8-0.3-0.3-0.5-0.7zm8.7 6.8c-1.5 0.7-3.8-0.7-6.2-3.5q0.3-0.3 0.6-0.7 0.3-0.4 0.6-0.8 0.3-0.4 0.6-0.7 0.2-0.4 0.5-0.8c1.9 0.6 3.7 1 5.3 1.2q0 0.3 0 0.6-0.1 0.1-0.3 0.2-0.1 0.1-0.2 0.2-0.1 0.1-0.2 0.3 0 0.2 0 0.3c0 0.5 0.3 0.9 0.7 1-0.1 1.4-0.6 2.3-1.4 2.7zm5.7-6.1c-0.9 0.3-2.2 0.4-3.8 0.3-0.2-1.6-0.6-3.5-1.3-5.4q0.5-0.3 0.8-0.5 0.4-0.3 0.8-0.6 0.4-0.2 0.8-0.5 0.4-0.3 0.7-0.6c1.8 1.5 3 3 3.5 4.3 0.5 1.5 0 2.5-1.5 3z"/>
		<path id="Layer" fill-rule="evenodd" class="s1" d="m171.6 5.4l-3.7 12-3.9-12h-12v25.2h8.9v-13.9c1.2 3.5 4.6 13.9 4.6 13.9h4.7l4.8-13.9v13.9h8.8v-25.2z"/>
	</g>
</svg>